<svg id="Capa_1" data-name="Capa 1" xmlns="http://www.w3.org/2000/svg" viewBox="0 0 50 50"><defs><style>.cls-1{fill:#12467e;}.cls-2{fill:#88a2bd;}.cls-3{fill:#4c739d;}.cls-4{fill:#c2d0de;}.cls-5{fill:#0177c1;}.cls-6{fill:#164a80;}.cls-7{fill:#067ac3;}.cls-8{fill:#174a81;}.cls-9{fill:#184b81;}.cls-10{fill:#f2f5f8;}.cls-11{fill:#f2f7fb;}.cls-12{fill:#ecf0f4;}.cls-13{fill:#eaf3f9;}.cls-14{fill:#fefefe;}.cls-15{fill:#0b62c2;}.cls-16{fill:#3f4eb7;}.cls-17{fill:#f8fafc;}.cls-18{fill:#f9fbfd;}.cls-19{fill:#f4be0a;}.cls-20{fill:#fdc001;}.cls-21{fill:#fd3b01;}</style></defs><title>Mesa de trabajo 2 copia 2</title><g id="MYVPPx.tif"><path class="cls-1" d="M43.66,3.16h.17c.07.23.28.14.43.2a3.34,3.34,0,0,1,2.34,2.7q0,10.4,0,20.79c0,.26,0,.53.17.73v.17c-.55,1.37-1.3,2.51-2.9,2.78l-.52,0H6.91c-.2,0-.39,0-.59,0a3.51,3.51,0,0,1-2.94-3.46L3.4,6.6A3.39,3.39,0,0,1,6.3,3.31l.52,0h36C43.12,3.33,43.42,3.39,43.66,3.16Zm2.53,16.46c0-4.21,0-8.42,0-12.63a3.08,3.08,0,0,0-3.3-3.28H7.23a3.08,3.08,0,0,0-3.3,3.34c0,3.89,0,7.79,0,11.69,0,.78.22.92,1,.92,9.08,0,18.17,0,27.25,0,.84,0,1.1.26,1.07,1.08,0,1.46,0,2.92,0,4.38,0,1.05-.07,1.11-1.12,1.11H14.51c-3.29,0-6.59,0-9.88,0-.56,0-.72.15-.71.71,0,2,1.33,3.18,3.47,3.18H42.46c2.65,0,3.8-1.18,3.74-3.85Z"/><path class="cls-2" d="M6.32,30.54c.2,0,.39,0,.59,0H43.33l.52,0a.39.39,0,0,0,0,.15H6.34A.22.22,0,0,1,6.32,30.54Z"/><path class="cls-3" d="M43.66,3.16c-.24.23-.54.17-.82.17h-36l-.52,0a.42.42,0,0,1,0-.15Z"/><path class="cls-3" d="M46.75,27.58c-.21-.2-.17-.47-.17-.73q0-10.39,0-20.79l.15,0Z"/><path class="cls-4" d="M3.4,6.6l0,20.48a.15.15,0,0,1-.13,0V6.6Z"/><path class="cls-5" d="M46.2,26.23c-3.64,0-7.27,0-10.91,0-.77,0-1.09-.24-1.07-1q.06-2.24,0-4.47c0-.79.21-1.1,1.07-1.09,3.63,0,7.27,0,10.9,0C46.2,21.82,46.2,24,46.2,26.23Z"/><path class="cls-6" d="M11.36,7.87c.45,0,.91,0,1.36.08.78.07,1.48.29,1.72,1.15a2.14,2.14,0,0,1-.69,2.32,3.5,3.5,0,0,1-2.47.81c-.8,0-1.1.26-1.23,1-.19,1.13-.35,1.18-1.4,1.09-.4,0-.49-.21-.42-.55.41-1.83.83-3.67,1.25-5.5.08-.33.36-.41.68-.41s.8,0,1.2,0ZM11.22,11c.9,0,1.5-.47,1.48-1.11s-.52-.73-1-.75-1,.59-1,1.47C10.66,11.06,11,11,11.22,11Z"/><path class="cls-7" d="M25.9,14.36c-.67.09-.89-.1-.7-.81.42-1.6.77-3.22,1.1-4.84a.88.88,0,0,1,1.06-.82c.76,0,1.54,0,2.3.08a1.68,1.68,0,0,1,1.69,1.09,2.08,2.08,0,0,1-.46,2.15,3.37,3.37,0,0,1-2.72,1c-.82,0-1.12.31-1.2,1.06S26.77,14.55,25.9,14.36Zm2.8-5.21c-.76,0-1,.29-1.09,1.37,0,.37.1.52.47.53A1.41,1.41,0,0,0,29.63,10C29.67,9.34,29.25,9.17,28.7,9.15Z"/><path class="cls-8" d="M21.89,12.4c.56-1,1-1.72,1.45-2.47a1.7,1.7,0,0,1,1.75-.54c.32.16.18.39.07.57-1.23,2.1-2.45,4.19-3.71,6.26-.39.65-1.08.36-1.65.34-.19,0-.17-.23-.07-.34,1.32-1.48.55-3.12.35-4.71-.06-.43-.14-.85-.23-1.27s-.25-.79.34-.84,1.15-.2,1.29.6S21.72,11.46,21.89,12.4Z"/><path class="cls-9" d="M17.65,14.3c-.58-.48-1.27.09-2,.19a1.35,1.35,0,0,1-1.57-.75,1.59,1.59,0,0,1,.58-1.89,4.83,4.83,0,0,1,2.28-.64c.28,0,.74.1.73-.35s-.46-.35-.75-.42a4.64,4.64,0,0,0-1.18.12c-.25,0-.6.4-.71,0a.91.91,0,0,1,.33-.92A5.22,5.22,0,0,1,19,9.76a1.09,1.09,0,0,1,.34,1.17c-.2,1-.44,1.89-.63,2.84C18.61,14.27,18.3,14.41,17.65,14.3Zm-.21-2.16a2.25,2.25,0,0,0-1.44.28c-.23.13-.43.31-.33.62a.59.59,0,0,0,.67.41A1.13,1.13,0,0,0,17.44,12.14Z"/><path class="cls-7" d="M34.11,9.33a8.59,8.59,0,0,1,1,.1c1,.21,1.3.67,1.11,1.66-.15.81-.35,1.61-.55,2.42s-.62,1.16-1.32.81-1,0-1.43.1a1.58,1.58,0,0,1-1.74-.37,1.38,1.38,0,0,1-.12-1.61,1.9,1.9,0,0,1,1.43-1c.55-.13,1.12-.17,1.69-.25.18,0,.44,0,.44-.29s-.19-.32-.4-.39a3.71,3.71,0,0,0-1.52,0c-.25,0-.65.45-.74-.07a.77.77,0,0,1,.6-1A7.17,7.17,0,0,1,34.11,9.33Zm-1,4.12c.72-.08,1.17-.35,1.23-1,0-.41-.26-.3-.45-.27-.54.1-1.22.07-1.32.81C32.55,13.32,32.89,13.45,33.14,13.45Z"/><path class="cls-7" d="M37.16,14.36c-.5.05-.85,0-.7-.68.4-1.67.75-3.35,1.14-5A1.09,1.09,0,0,1,39.06,8c.27.15.19.39.14.61-.38,1.73-.77,3.46-1.14,5.2C38,14.33,37.6,14.4,37.16,14.36Z"/><path class="cls-10" d="M11.22,11c-.23,0-.56.07-.56-.39,0-.88.4-1.49,1-1.47s1,0,1,.75S12.12,11,11.22,11Z"/><path class="cls-11" d="M28.7,9.15c.55,0,1,.19.93.84a1.41,1.41,0,0,1-1.55,1.06c-.37,0-.49-.16-.47-.53C27.69,9.44,27.94,9.11,28.7,9.15Z"/><path class="cls-12" d="M17.44,12.14a1.13,1.13,0,0,1-1.1,1.31.59.59,0,0,1-.67-.41c-.1-.31.1-.49.33-.62A2.25,2.25,0,0,1,17.44,12.14Z"/><path class="cls-13" d="M33.14,13.45c-.25,0-.59-.13-.54-.51.1-.74.78-.71,1.32-.81.19,0,.48-.14.45.27C34.31,13.1,33.86,13.37,33.14,13.45Z"/></g><g id="BTWR2v.tif"><path class="cls-14" d="M14.31,46.77H21.9a1.85,1.85,0,0,0,2.05-2V35a1.87,1.87,0,0,0-2.06-2H6.75a1.87,1.87,0,0,0-2.07,2.07v9.65a1.86,1.86,0,0,0,2,2.05Z"/><path class="cls-15" d="M14.31,46.77H6.72a1.86,1.86,0,0,1-2-2.05V35.07A1.87,1.87,0,0,1,6.75,33H21.89A1.87,1.87,0,0,1,24,35v9.69a1.85,1.85,0,0,1-2.05,2ZM7.19,38.43h0a.62.62,0,0,0,0,.38L8,41.59c.09.34.09.79.32,1s.7,0,1.06.07a.4.4,0,0,0,.48-.32c.53-1.37,1.08-2.73,1.62-4.1a1.84,1.84,0,0,0,.21-.65c-.36,0-.71,0-1.06,0s-.34.09-.41.3c-.3.94-.62,1.87-.94,2.8,0,.11,0,.25-.17.35-.16-.39-.11-.82-.3-1.17a7.07,7.07,0,0,0-.32-1.72.6.6,0,0,0-.59-.45c-.65,0-1.3,0-2,0a7.08,7.08,0,0,1,1.32.69S7.13,38.45,7.19,38.43ZM20,37.58c-.46-.15-.68.14-.87.62-.47,1.18-1,2.34-1.49,3.51-.12.3-.45.66-.3.88s.61,0,.94.06h.08a.21.21,0,0,0,.26-.18c.07-.57.46-.59.91-.55a4.85,4.85,0,0,0,.66,0c.19,0,.33,0,.32.25,0,.45.25.54.64.48a1.07,1.07,0,0,1,.31,0c.28,0,.35-.06.29-.35-.29-1.34-.55-2.69-.82-4C20.74,37.58,20.74,37.58,20,37.58Zm-5.13,5.07A2.79,2.79,0,0,0,16.7,42a1.2,1.2,0,0,0-.18-2.1c-.29-.18-.61-.32-.89-.5a.36.36,0,0,1,.07-.69,1.64,1.64,0,0,1,.85-.06c.23,0,.46.35.65.12s.12-.47.18-.71,0-.21-.15-.26a3.24,3.24,0,0,0-2.37.11,1.3,1.3,0,0,0-.78,1.18,1.28,1.28,0,0,0,.69,1.23c.29.16.58.31.86.48a.43.43,0,0,1,.25.45c0,.23-.21.31-.41.36a2.85,2.85,0,0,1-1.09,0c-.21,0-.45-.24-.58-.13s-.11.41-.19.62,0,.39.24.45A6,6,0,0,0,14.82,42.65Zm-2.75,0h.39c.22,0,.29-.07.32-.28.23-1.48.46-2.95.7-4.43,0-.26,0-.39-.3-.36a3.75,3.75,0,0,1-.67,0c-.24,0-.33.07-.37.32-.2,1.37-.42,2.74-.63,4.11C11.42,42.65,11.42,42.65,12.07,42.65Z"/><path class="cls-16" d="M35.68,46.84H28.05a1.85,1.85,0,0,1-2-2V35.11a1.87,1.87,0,0,1,2.06-2H43.28a1.87,1.87,0,0,1,2,2v9.76a1.85,1.85,0,0,1-2,2Zm-.26-10.37a4.37,4.37,0,0,0-3.56-1.06,4.59,4.59,0,1,0,1.29,9.08,5.13,5.13,0,0,0,2.33-1,4.43,4.43,0,0,0,3.61,1,4.59,4.59,0,1,0-3.67-8Z"/><path class="cls-17" d="M20,37.58c.79,0,.79,0,.93.68.27,1.35.53,2.7.82,4,.06.29,0,.38-.29.35a1.07,1.07,0,0,0-.31,0c-.39.06-.64,0-.64-.48,0-.2-.13-.26-.32-.25a4.85,4.85,0,0,1-.66,0c-.45,0-.84,0-.91.55a.21.21,0,0,1-.26.18h-.08c-.33,0-.79.14-.94-.06s.18-.58.3-.88c.49-1.17,1-2.33,1.49-3.51C19.27,37.72,19.49,37.43,20,37.58Zm-.07,1.62H19.8L19.15,41H20c.16,0,.24,0,.2-.22Z"/><path class="cls-18" d="M14.82,42.65a6,6,0,0,1-1-.15c-.26-.06-.34-.19-.24-.45s.05-.5.19-.62.37.1.58.13a2.85,2.85,0,0,0,1.09,0c.2,0,.38-.13.41-.36a.43.43,0,0,0-.25-.45c-.28-.17-.57-.32-.86-.48a1.28,1.28,0,0,1-.69-1.23,1.3,1.3,0,0,1,.78-1.18,3.24,3.24,0,0,1,2.37-.11c.15,0,.18.11.15.26s0,.55-.18.71-.42-.1-.65-.12a1.64,1.64,0,0,0-.85.06.36.36,0,0,0-.07.69c.28.18.6.32.89.5A1.2,1.2,0,0,1,16.7,42,2.79,2.79,0,0,1,14.82,42.65Z"/><path class="cls-17" d="M8.76,39.86c.19.35.14.78.3,1.17.13-.1.13-.24.17-.35.32-.93.64-1.86.94-2.8.07-.21.16-.32.41-.3s.7,0,1.06,0a1.84,1.84,0,0,1-.21.65c-.54,1.37-1.09,2.73-1.62,4.1a.4.4,0,0,1-.48.32c-.36,0-.82.15-1.06-.07s-.23-.65-.32-1l-.71-2.78a.62.62,0,0,1,0-.38,1,1,0,0,1,.49.28A6.94,6.94,0,0,1,8.76,39.86Z"/><path class="cls-17" d="M12.07,42.65c-.65,0-.65,0-.56-.64.21-1.37.43-2.74.63-4.11,0-.25.13-.34.37-.32a3.75,3.75,0,0,0,.67,0c.3,0,.35.1.3.36-.24,1.48-.47,3-.7,4.43,0,.21-.1.3-.32.28Z"/><path class="cls-19" d="M8.76,39.86a6.94,6.94,0,0,0-1.08-1.15,1,1,0,0,0-.49-.28h0s0-.06-.06-.06a7.08,7.08,0,0,0-1.32-.69c.74,0,1.39,0,2,0a.6.6,0,0,1,.59.45A7.07,7.07,0,0,1,8.76,39.86Z"/><path class="cls-17" d="M7.13,38.37s.08,0,.06.06S7.14,38.4,7.13,38.37Z"/><path class="cls-20" d="M35.42,36.47a4.6,4.6,0,1,1,3.67,8,4.43,4.43,0,0,1-3.61-1L35.9,43c.05-.06.14-.11.1-.2s-.14-.06-.21-.06a2.54,2.54,0,0,0-.39,0,.83.83,0,0,1-1-.59c-.11-.26-.13-.36.21-.35s1,0,1.45,0c.64,0,.63,0,.82-.63.07-.26,0-.32-.24-.31H34.53c-.57,0-.54,0-.65-.56-.06-.33.06-.38.34-.38h2.44c.21,0,.46,0,.39-.3s.07-.6-.41-.59c-.77,0-1.55,0-2.32,0-.11,0-.25.06-.31-.09s.27-.84.56-.84h1.77c.22,0,.28-.06.19-.28-.21-.52-.34-.61-.9-.61h-.51c-.08,0-.17,0-.22,0s0-.14.09-.2Z"/><path class="cls-21" d="M35.42,36.47,35,37c-.05.06-.14.11-.09.2s.14,0,.22,0h.51c.56,0,.69.09.9.61.09.22,0,.28-.19.28H34.57c-.29,0-.68.58-.56.84s.2.09.31.09c.77,0,1.55,0,2.32,0,.48,0,.36.34.41.59s-.18.3-.39.3H34.22c-.28,0-.4,0-.34.38.11.56.08.56.65.56h2.13c.26,0,.31,0,.24.31-.19.62-.18.63-.82.63-.48,0-1,0-1.45,0s-.32.09-.21.35a.83.83,0,0,0,1,.59,2.54,2.54,0,0,1,.39,0c.07,0,.17,0,.21.06s0,.14-.1.2l-.42.46a5.13,5.13,0,0,1-2.33,1,4.59,4.59,0,1,1-1.29-9.08A4.37,4.37,0,0,1,35.42,36.47Z"/><path class="cls-15" d="M19.88,39.2l.3,1.53c0,.19,0,.23-.2.22h-.83l.65-1.75Z"/></g></svg>