<svg id="Capa_1" data-name="Capa 1" xmlns="http://www.w3.org/2000/svg" viewBox="0 0 50 50"><defs><style>.cls-1{fill:#fff;}</style></defs><title>Mesa de trabajo 2 copia</title><g id="_5GRttQ.tif" data-name="5GRttQ.tif"><path d="M31.49,27.21c0,.69-.1,1.38-.13,2.07a.53.53,0,0,0,.15.36c.56.53,1.14,1,1.72,1.55.24.22.25.28,0,.54-.49.59-1,1.17-1.47,1.77a.58.58,0,0,0-.1.4c.15.77.31,1.53.48,2.29.06.26,0,.36-.27.42l-2.21.55a.48.48,0,0,0-.38.32c-.3.7-.62,1.39-.91,2.09-.11.24-.24.31-.49.2-.72-.3-1.44-.59-2.17-.87a.5.5,0,0,0-.38,0c-.68.37-1.34.77-2,1.15-.29.17-.36.16-.53-.12-.41-.64-.82-1.28-1.21-1.93a.49.49,0,0,0-.41-.26c-.77-.06-1.55-.15-2.32-.22-.25,0-.31-.17-.29-.39.06-.76.1-1.52.17-2.28a.51.51,0,0,0-.2-.46l-1.68-1.5c-.25-.22-.25-.29,0-.54.47-.57.94-1.15,1.43-1.71a.56.56,0,0,0,.13-.56c-.16-.72-.31-1.45-.47-2.17-.07-.26,0-.38.27-.45.75-.17,1.49-.37,2.24-.55a.46.46,0,0,0,.34-.29c.3-.71.62-1.41.92-2.11.11-.25.24-.3.49-.2.71.3,1.43.57,2.14.87a.43.43,0,0,0,.44,0c.66-.39,1.32-.76,2-1.15.24-.14.39-.12.53.13L28.47,26a.56.56,0,0,0,.49.31c.75.05,1.49.14,2.24.21.23,0,.35.13.31.37s0,.19,0,.29ZM20.07,32.06a5,5,0,1,0,5.06-5A5,5,0,0,0,20.07,32.06Z"/><path d="M29.84,49.43l-4.82-4-4.73,4c0-.14,0-.22,0-.3q0-4.52,0-9a.36.36,0,0,1,.22-.37c.3-.15.59-.32.91-.5l.81,1.31.49.8c.18.28.26.3.56.13l2.12-1.24a.45.45,0,0,1,.45,0l2.27.92c.32.13.4.09.54-.23l.62-1.47.06,0c.53.11.53.11.53.65v9.39Z"/><path class="cls-1" d="M29.11,32.05A4.05,4.05,0,1,0,25,36.11,4.06,4.06,0,0,0,29.11,32.05Z"/><path d="M29.11,32.05a4.05,4.05,0,1,1-4-4A4.06,4.06,0,0,1,29.11,32.05Zm-4.73,2.54,3.19-3.74c.22-.25.23-.49,0-.68a.54.54,0,0,0-.75,0c-.21.19-.41.4-.61.6l-1.89,1.91a4.16,4.16,0,0,1-.35-.24L23.38,32a.56.56,0,0,0-.71.08.4.4,0,0,0,0,.57C23.22,33.28,23.78,33.92,24.38,34.59Z"/></g><g id="_37Sc2p.tif" data-name="37Sc2p.tif"><path class="cls-1" d="M25,9.54l-.28.66c-.59,1.48-1.19,3-1.77,4.43a.51.51,0,0,1-.57.38h-4l-.48,0-.08.16c1.08,1,2.16,2.11,3.26,3.15a.64.64,0,0,1,.18.8c-.47,1.33-.91,2.67-1.36,4l-.29.89.5-.32q2.3-1.51,4.57-3.06a.52.52,0,0,1,.68,0c1.2.83,2.43,1.63,3.65,2.44l1.43.95c-.06-.22-.09-.34-.13-.46-.5-1.49-1-3-1.51-4.47a.68.68,0,0,1,.18-.84c1-1,1.95-1.93,2.91-2.9.09-.09.18-.2.33-.38h-.58c-1.3,0-2.6,0-3.91,0a.6.6,0,0,1-.7-.47c-.25-.72-.57-1.43-.86-2.14C25.78,11.48,25.41,10.56,25,9.54Z"/><path d="M25,9.54c.42,1,.79,1.94,1.16,2.86.29.71.61,1.42.86,2.14a.6.6,0,0,0,.7.47c1.31,0,2.61,0,3.91,0h.58c-.15.18-.24.29-.33.38-1,1-1.92,1.95-2.91,2.9a.68.68,0,0,0-.18.84c.51,1.48,1,3,1.51,4.47,0,.12.07.24.13.46L29,23.1c-1.22-.81-2.45-1.61-3.65-2.44a.52.52,0,0,0-.68,0q-2.28,1.55-4.57,3.06l-.5.32.29-.89c.45-1.34.89-2.68,1.36-4a.64.64,0,0,0-.18-.8c-1.1-1-2.18-2.1-3.26-3.15l.08-.16.48,0h4a.51.51,0,0,0,.57-.38c.58-1.48,1.18-3,1.77-4.43Z"/><path d="M39.5,8.31V7.8C33.6,7.43,29.18,4.21,25,.57c-.75.63-1.47,1.28-2.23,1.88a24.81,24.81,0,0,1-8.84,4.8c-1.1.29-2.24.41-3.41.62,0,0,0,.12,0,.2,0,4.12,0,8.25,0,12.37A7.3,7.3,0,0,0,11,22.7a15.82,15.82,0,0,0,3.67,5.56c.84.91,1.73,1.78,2.64,2.6l.45-.36a.58.58,0,0,0,.21-.57l-.43-2.32a.3.3,0,0,1,.19-.34,5.78,5.78,0,0,1,.8-.24c-.76-.75-1.49-1.52-2.18-2.35-.4-.48-.76-1-1.12-1.51a5.87,5.87,0,0,1-1.07-3.53c.06-2.73,0-5.47,0-8.21,0-.25,0-.47.34-.57A27.35,27.35,0,0,0,24.11,6c.89-.67.89-.67,1.8,0a27.47,27.47,0,0,0,9.68,4.84c.33.09.28.3.28.51V16h0c0,1.34,0,2.68,0,4a4.87,4.87,0,0,1-.69,2.58,18.65,18.65,0,0,1-2.94,3.74l-.22.23-.15,2.28a.65.65,0,0,0,.27.58l1.26.88a27.24,27.24,0,0,0,4.19-4.77,9.37,9.37,0,0,0,1.9-5.27Z"/></g></svg>