<svg id="Capa_1" data-name="Capa 1" xmlns="http://www.w3.org/2000/svg" viewBox="0 0 116 50"><title>Mesa de trabajo 2</title><path d="M43.22,6.87v29a1.37,1.37,0,0,0,1.37,1.37h3.62a1.37,1.37,0,0,0,1.36-1.4h0a5.64,5.64,0,0,1,11.28,0h0a1.38,1.38,0,0,0,1.36,1.4H80.64A1.37,1.37,0,0,0,82,35.87v-29A1.37,1.37,0,0,0,80.64,5.5h-36A1.37,1.37,0,0,0,43.22,6.87Zm8.5,21.91h-3.6a1.37,1.37,0,0,1-1.37-1.38v-.07A1.37,1.37,0,0,1,48.12,26h3.6a1.38,1.38,0,0,1,1.38,1.38v.07A1.38,1.38,0,0,1,51.72,28.78Zm24.69,0H55.88a1.37,1.37,0,0,1-1.37-1.38v-.07A1.37,1.37,0,0,1,55.88,26H76.41a1.37,1.37,0,0,1,1.37,1.38v.07A1.37,1.37,0,0,1,76.41,28.78Z"/><path d="M94.55,11.14H84a1.27,1.27,0,0,0-1.27,1.27V35.34a1.9,1.9,0,0,0,1.9,1.9h3.89A1.27,1.27,0,0,0,89.77,36h0a5.73,5.73,0,0,1,5.14-5.76,5.65,5.65,0,0,1,6.15,5.62h0a1.4,1.4,0,0,0,1.39,1.4h3.62a1.34,1.34,0,0,0,1.34-1.34V26.22a2.67,2.67,0,0,0-.63-1.71L96,11.8A1.88,1.88,0,0,0,94.55,11.14Zm7.54,15.07a1.44,1.44,0,0,1-1.08.45H92.67a1.45,1.45,0,0,1-1.48-1.28,1.41,1.41,0,0,1,1.4-1.54H98s0,0,0,0l-6.45-7.53a1.41,1.41,0,1,1,2.15-1.83l8.46,9.87A1.41,1.41,0,0,1,102.09,26.21Z"/><rect x="15.03" y="11.08" width="24.56" height="2.79" rx="1.4"/><rect x="9.73" y="18.34" width="29.86" height="2.79" rx="1.4"/><rect x="7.5" y="11.08" width="6.42" height="2.79" rx="1.4"/><rect x="7.5" y="25.31" width="24.56" height="2.79" rx="1.4" transform="translate(39.56 53.42) rotate(180)"/><rect x="33.17" y="25.31" width="6.42" height="2.79" rx="1.4" transform="translate(72.77 53.42) rotate(-180)"/><circle cx="55.22" cy="36.76" r="4.74"/><circle cx="95.41" cy="36.76" r="4.74"/></svg>