<svg id="Layer_1" data-name="Layer 1" xmlns="http://www.w3.org/2000/svg" viewBox="0 0 50 50"><defs><style>.cls-1{fill:#375b9a;}</style></defs><title>Artboard 1 copy 2</title><g id="fFx7s7.tif"><path class="cls-1" d="M26.55,23.23h-6V30c0,.16,0,.16.15.16h5.65c.18,0,.18,0,.18.18V47.82c0,.17,0,.17-.16.17H4.65a2.56,2.56,0,0,1-2.48-1.64,2.48,2.48,0,0,1-.16-.8V4.61a2.55,2.55,0,0,1,.62-1.74A2.45,2.45,0,0,1,4.46,2h41A2.45,2.45,0,0,1,47.77,3.5a2.39,2.39,0,0,1,.22,1V45.33A2.58,2.58,0,0,1,47.44,47a2.42,2.42,0,0,1-1.8.95l-.52,0H33.94c-.18,0-.18,0-.18-.18V30.39s0-.08,0-.11a.16.16,0,0,1,.08-.08h5.7c.18,0,.18,0,.21-.18l.21-1.6c.07-.52.13-1.05.2-1.57s.13-1,.2-1.57l.21-1.56c0-.16,0-.32.06-.49H33.92c-.16,0-.16,0-.16-.16,0-1.57,0-3.14,0-4.72a4.13,4.13,0,0,1,.2-1.2,2.27,2.27,0,0,1,1.67-1.53,6.15,6.15,0,0,1,1.6-.19h3.62V9.2c-.23,0-.46-.06-.69-.07-.67-.05-1.33-.12-2-.14C37.07,9,36,8.92,34.88,9a9.11,9.11,0,0,0-3.52.78,7.58,7.58,0,0,0-4.19,4.54,9.26,9.26,0,0,0-.52,2.33c0,.59-.09,1.19-.09,1.78,0,1.56,0,3.12,0,4.68Z"/></g></svg>