<?xml version="1.0" encoding="utf-8"?>
<!-- Generator: Adobe Illustrator 22.1.0, SVG Export Plug-In . SVG Version: 6.00 Build 0)  -->
<svg version="1.1" id="Layer_1" xmlns="http://www.w3.org/2000/svg" xmlns:xlink="http://www.w3.org/1999/xlink" x="0px" y="0px"
	 viewBox="0 0 50 50" style="enable-background:new 0 0 50 50;" xml:space="preserve">
<style type="text/css">
	.st0{fill:url(#SVGID_1_);}
	.st1{fill:url(#SVGID_2_);}
	.st2{fill:url(#SVGID_3_);}
</style>
<title>Artboard 1</title>
<linearGradient id="SVGID_1_" gradientUnits="userSpaceOnUse" x1="46.9899" y1="3.0101" x2="7.6732" y2="42.3268">
	<stop  offset="0" style="stop-color:#8D3FAC"/>
	<stop  offset="0.42" style="stop-color:#D83E75"/>
	<stop  offset="1" style="stop-color:#FC8D01"/>
</linearGradient>
<path class="st0" d="M35.9,2.1H14.1c-6.6,0-12,5.4-12,12v21.7c0,6.6,5.4,12,12,12h21.7c6.6,0,12-5.4,12-12V14.1
	C47.9,7.5,42.5,2.1,35.9,2.1z M43.8,35.7c0,4.4-3.6,8.1-8.1,8.1H14.3c-4.4,0-8.1-3.6-8.1-8.1V14.3c0-4.4,3.6-8.1,8.1-8.1h21.4
	c4.4,0,8.1,3.6,8.1,8.1V35.7z"/>
<linearGradient id="SVGID_2_" gradientUnits="userSpaceOnUse" x1="34.4791" y1="15.1817" x2="17.531" y2="32.1298">
	<stop  offset="0" style="stop-color:#8D3FAC"/>
	<stop  offset="0.42" style="stop-color:#D83E75"/>
	<stop  offset="1" style="stop-color:#FC8D01"/>
</linearGradient>
<path class="st1" d="M25,12.9c-6.5,0-11.8,5.3-11.8,11.8c0,6.5,5.3,11.8,11.8,11.8s11.8-5.3,11.8-11.8C36.8,18.1,31.5,12.9,25,12.9z
	 M25,32.4c-4.3,0-7.7-3.5-7.7-7.7c0-4.3,3.5-7.7,7.7-7.7s7.7,3.5,7.7,7.7C32.7,28.9,29.3,32.4,25,32.4z"/>
<linearGradient id="SVGID_3_" gradientUnits="userSpaceOnUse" x1="46.7626" y1="3.2383" x2="7.7995" y2="42.2014">
	<stop  offset="0" style="stop-color:#8D3FAC"/>
	<stop  offset="0.42" style="stop-color:#D83E75"/>
	<stop  offset="1" style="stop-color:#FC8D01"/>
</linearGradient>
<circle class="st2" cx="37.3" cy="12.7" r="2.8"/>
</svg>
