<svg id="Capa_1" data-name="Capa 1" xmlns="http://www.w3.org/2000/svg" viewBox="0 0 160 50"><defs><style>.cls-1{fill:#0b1542;}</style></defs><title>Mesa de trabajo 2</title><polygon class="cls-1" points="24.01 3.58 20.11 18.54 24.01 22.61 24.01 3.58"/><polygon class="cls-1" points="3.68 23.66 19.5 28.05 23.69 23.66 3.68 23.66"/><polygon class="cls-1" points="44.51 23.01 28.69 18.62 24.5 23.01 44.51 23.01"/><polygon class="cls-1" points="24.5 43.99 28.89 28.18 24.5 23.99 24.5 43.99"/><path class="cls-1" d="M21.57,10.35V9A15.22,15.22,0,0,0,8.77,20.37l1.21.56A13.92,13.92,0,0,1,21.57,10.35Z"/><path class="cls-1" d="M38.59,20.9h.61A15.13,15.13,0,0,0,27.1,9.17V10A15.34,15.34,0,0,1,38.59,20.9Z"/><path class="cls-1" d="M21.57,36.81a13.88,13.88,0,0,1-11.67-11L8.56,25.7a15.14,15.14,0,0,0,13,12.43Z"/><path class="cls-1" d="M36.41,30a14.21,14.21,0,0,1-9.31,6.64V38a15.5,15.5,0,0,0,10.34-7.14Z"/><path class="cls-1" d="M29.79,28.65v-.18c.7,0,.73-.08.73-.56V25.44c0-.33,0-.35-.32-.37l-.3,0v-.16a5.8,5.8,0,0,0,1.15-.32v3.35c0,.49,0,.51.74.56v.18Z"/><path class="cls-1" d="M34.44,26.78,34,27a.83.83,0,0,1-.38.1,1.14,1.14,0,0,1-1.13-1.21,1.31,1.31,0,0,1,1.29-1.33c.81,0,1.26.73,1.26,1.61a2.48,2.48,0,0,1-2.34,2.57l0-.2A2.11,2.11,0,0,0,34.44,26.78Zm-.72-2c-.49,0-.66.47-.66.92s.31,1,.84,1a1,1,0,0,0,.56-.19,3.07,3.07,0,0,0,0-.42C34.49,25.57,34.33,24.79,33.72,24.79Z"/><path class="cls-1" d="M35.88,28.65v-.18c.7,0,.74-.08.74-.56V25.44c0-.33,0-.35-.32-.37L36,25v-.16a5.62,5.62,0,0,0,1.15-.32v3.35c0,.49,0,.51.74.56v.18Z"/><path class="cls-1" d="M38.71,25.33l.29-.4a1.07,1.07,0,0,1,.81-.37.87.87,0,0,1,.95.86.71.71,0,0,1-.19.47,3.07,3.07,0,0,1-.45.35,1.06,1.06,0,0,1,.93,1c0,1.05-1.21,1.49-1.65,1.49a1,1,0,0,1-.66-.22.31.31,0,0,1-.09-.21.39.39,0,0,1,.14-.25.12.12,0,0,1,.17,0,1.16,1.16,0,0,0,.78.34c.45,0,.77-.35.77-1a.79.79,0,0,0-.83-.83,1.6,1.6,0,0,0-.42.07l0-.19c.56-.18,1-.44,1-.92a.56.56,0,0,0-.61-.6,1,1,0,0,0-.78.51Z"/><path class="cls-1" d="M157.21,25a30.06,30.06,0,0,1-.68,3.16c-1.06,3.39-3.05,6-6.58,7.06a9.07,9.07,0,0,1-10.88-4.81,15.63,15.63,0,0,1,.3-14.91,8.51,8.51,0,0,1,8.15-4.52,8.37,8.37,0,0,1,8,5.05A35.54,35.54,0,0,1,157,20.61a6.76,6.76,0,0,1,.17.78ZM155,23.5c-.13-3-.48-5.81-2-8.39a6.18,6.18,0,0,0-4.05-3,7,7,0,0,0-8.12,4.68,19.55,19.55,0,0,0-.15,12.53,8.12,8.12,0,0,0,3.05,4.12,5.73,5.73,0,0,0,4.18,1.23,7.3,7.3,0,0,0,6.35-5.88C154.65,27.05,154.78,25.26,155,23.5Z"/><path class="cls-1" d="M76.6,12l0-.71c.09-.06.13-.12.18-.12,3.51.07,7.05-.07,10.54.27A4.94,4.94,0,0,1,92.14,16a6,6,0,0,1-3.85,6.63c-.52.22-1.07.37-1.68.57l2.77,5.87L91.27,33c.59,1.24.69,1.31,2,1.41,0,0,.09.06.09.11s0,.37,0,.55-.1.11-.14.11c-1,0-2,.07-2.92,0-.22,0-.5-.35-.61-.6-1.58-3.59-3.16-7.18-4.69-10.79a1,1,0,0,0-1.08-.7c-1.16,0-2.32,0-3.5,0a2.29,2.29,0,0,0-.09.44q0,4.8,0,9.59c0,1,.21,1.11,1.78,1.28,0,.35.25.79-.39.8H76.6v-.83l.64,0a1,1,0,0,0,1.14-1.16q0-10,0-20c0-.9-.27-1.14-1.17-1.19ZM80.36,22.3c1.57,0,3,0,4.47,0a6.88,6.88,0,0,0,1.29-.12,4.68,4.68,0,0,0,4-5,4.52,4.52,0,0,0-3.92-4.9,35.11,35.11,0,0,0-4.93-.19.86.86,0,0,0-.87,1C80.36,16.1,80.36,19.12,80.36,22.3Z"/><path class="cls-1" d="M132.32,35.17c-.61.26-.84-.06-1.09-.47q-6.06-10.05-12.15-20.09c-.14-.24-.31-.48-.6-.92,0,.48-.07.72-.07,1V32.77c0,1.4.18,1.58,1.63,1.67,0,.11.06.23.07.35a3.63,3.63,0,0,1,0,.44H116v-.78l.34,0c1.11-.07,1.32-.27,1.32-1.38V16.12c0-1,0-1.9,0-2.84s-.27-1.12-1.16-1.23c-.24,0-.45-.28-.67-.43.23-.14.45-.41.69-.42,2.7-.1,2.69-.08,4.12,2.28l10.12,16.75a2.7,2.7,0,0,0,.78.87V13.88c0-1.66,0-1.66-1.63-1.89l-.05-.8c1.29,0,2.53,0,3.76,0,.16,0,.3.44.48.73-1.8.32-1.8.32-1.8,2V35.17Z"/><path class="cls-1" d="M57.14,34.44v.78H51.4l-.06-.76.75-.05c.89,0,1.18-.31,1.18-1.19,0-6.66,0-13.32,0-20,0-.77-.33-1.18-1.12-1.17-.21,0-.42,0-.67-.05v-.71c.09-.05.13-.1.18-.1,3.22,0,6.46-.13,9.66.12,5.13.41,7,5.24,5,9.35-1.08,2.24-3.25,3.17-5.69,3.31-1.51.08-3,0-4.55,0-.26,0-.53,0-.87.05v8.48C55.23,34.25,55.32,34.35,57.14,34.44Zm-1.9-11.28c1.55,0,3,0,4.46,0A5.06,5.06,0,0,0,65,18.3a12.71,12.71,0,0,0,0-1.38c-.17-2.73-1.48-4.37-4-4.71a36.41,36.41,0,0,0-4.79-.11c-.62,0-.91.42-.91,1C55.24,16.42,55.24,19.73,55.24,23.16Z"/><path class="cls-1" d="M114.24,34.43v.78H108.8l0-.72c1.38-.21,1.73-.76,1.31-2.08-.6-1.86-1.25-3.7-1.84-5.56a.76.76,0,0,0-.87-.61c-2.57,0-5.15,0-7.72,0a.75.75,0,0,0-.84.63c-.57,1.73-1.18,3.43-1.76,5.15s-.24,2.21,1.56,2.45v.75H94.05v-.74a2.32,2.32,0,0,0,1.84-1.73c2.38-6.94,4.79-13.86,7.16-20.8.36-1,1.35-.82,2-1.37l2.34,7.11q2.5,7.61,5,15.19C112.73,33.74,113.14,34.43,114.24,34.43Zm-15-9h8.49l-4.1-12.25h-.16Z"/><path class="cls-1" d="M68.35,34.49c2.11-.21,2.11-.21,2.11-2.08V22.58c0-2,0-2-1.86-2.31-.17-.49-.13-.79.54-.81a5.16,5.16,0,0,0,1.5-.28,13.05,13.05,0,0,0,1.53-.71V32.33c0,1.91,0,1.91,1.9,2.15a2.72,2.72,0,0,1,0,.3c0,.13,0,.26,0,.49-1.75,0-3.47,0-5.2,0C68.72,35.23,68.58,34.83,68.35,34.49Z"/><path class="cls-1" d="M71.46,11A1.54,1.54,0,0,1,73,12.62a1.76,1.76,0,0,1-1.58,1.83,1.81,1.81,0,0,1-1.58-1.84A1.55,1.55,0,0,1,71.46,11Z"/></svg>